<svg xmlns="http://www.w3.org/2000/svg" clip-rule="evenodd" fill-rule="evenodd" stroke-linejoin="round" stroke-miterlimit="2" viewBox="100 133.97 360 132.07"><g fill="#004898" fill-rule="nonzero" transform="matrix(2.40425 0 0 2.40425 100 133.967)"><path d="m50.926 24.39h-16.716l-5.09-5.09v-8.916l1.77 1.775v6.426l4.014 4.02h14.231zm-5.915-2.584h-9.778l-3.566-3.55v-6.4l-2.563-2.574-2.553 2.563v8.515l6.578 6.588h12.707c0 .178.01.35.01.527 0 8.964-6.003 16.57-14.179 19.008v-9.799l3.566-3.55h6.4l2.564-2.563-2.564-2.563h-8.499l-6.577 6.588v12.702c-.188 0-.361.01-.549.01-5.465 0-10.425-2.24-14.017-5.816-2.302-2.302-4.051-5.163-5.001-8.363h9.789l3.549 3.55v6.416l2.564 2.553 2.563-2.553v-8.499l-6.588-6.588h-12.702v-.538c0-8.953 5.988-16.564 14.163-19.018v9.804l-3.549 3.55h-6.411l-2.563 2.563 2.563 2.574h8.504l6.588-6.588v-12.728h.548c5.451 0 10.415 2.224 14.017 5.826 2.297 2.302 4.036 5.163 4.986 8.353zm-22.109-2.522-5.09 5.09h-8.916l1.769-1.769h6.432l4.015-4.02v-15.693l1.775-1.78zm-5.09 11.287 5.09 5.09v8.917l-1.775-1.77v-6.432l-4.014-4.014-14.21-.016-1.781-1.775zm11.308 5.09 5.09-5.09h8.916l-1.769 1.77h-6.458l-3.989 3.994v15.687l-1.774 1.78zm22.881-11.292-2.563-2.563h-3.111c-1.003-3.539-2.887-6.703-5.425-9.24-3.81-3.827-9.088-6.192-14.894-6.192h-.548v-3.811l-2.568-2.563-2.564 2.563v4.589c-8.874 2.49-15.416 10.666-15.416 20.318v.538h-2.349l-2.563 2.563 2.563 2.563h3.127c.987 3.54 2.877 6.714 5.414 9.241 3.827 3.811 9.089 6.191 14.904 6.191.188 0 .366-.01.549-.01v3.811l2.552 2.563 2.564-2.563v-4.589c8.875-2.49 15.426-10.655 15.426-20.308 0-.177-.01-.35-.01-.527h2.349z"/><path d="m30.984 27.465-4.981 4.98-4.985-4.98 4.985-4.98zm1.096 0-6.077-6.082-6.082 6.082 6.077 6.077z"/><path d="m59.599 41.738c.318 0 .621-.104.903-.313v-.757c-.319.266-.585.402-.804.402-.319 0-.548-.173-.689-.517-.141-.345-.209-.908-.209-1.697 0-.793.068-1.362.204-1.702.135-.339.36-.511.668-.511.256 0 .506.12.762.35v-.731c-.298-.194-.569-.293-.82-.293-.517 0-.913.256-1.195.773-.277.512-.418 1.227-.418 2.14 0 .914.141 1.619.418 2.109.282.502.673.747 1.18.747zm3.158-.078h.762v-5.612h-.757v2.469h-1.138v-2.469h-.757v5.612h.752v-2.47h1.138zm1.457 0h.762v-5.612h-.762zm3.497 0h.616v-5.612h-.694v3.461l-.016.01-1.32-3.471h-.616v5.612h.694v-3.493l.016-.01zm2.809-1.916h-.851l.418-2.35h.021zm.35 1.916h.736l-1.107-5.644h-.793l-1.118 5.644h.736l.235-1.248h1.102zm4.98.078c.319 0 .621-.104.903-.313v-.757c-.318.266-.584.402-.804.402-.318 0-.548-.173-.689-.517-.141-.345-.209-.908-.209-1.697 0-.793.068-1.362.204-1.702.136-.339.36-.511.663-.511.256 0 .506.12.762.35v-.731c-.298-.194-.569-.293-.819-.293-.517 0-.914.256-1.196.773-.277.512-.418 1.227-.418 2.14 0 .914.141 1.619.413 2.109.287.502.678.747 1.19.747zm3.43-2.882c0 .7-.068 1.243-.209 1.629s-.329.585-.574.585c-.256 0-.449-.188-.585-.569s-.209-.93-.209-1.64c0-.689.068-1.232.199-1.623.135-.392.323-.59.574-.59s.444.193.585.574c.146.381.219.924.219 1.634zm.344 2.115c.303-.507.455-1.217.455-2.12 0-.846-.141-1.54-.429-2.078-.287-.537-.673-.804-1.153-.804-.501 0-.888.272-1.164.804-.277.538-.418 1.227-.418 2.073 0 .892.146 1.597.439 2.109.292.511.673.767 1.143.767.444.016.825-.24 1.127-.751zm3.248.689h.746v-5.612h-.658l-.877 2.056-.877-2.056h-.652v5.612h.746l-.047-4.057.021-.015.747 1.842h.141l.746-1.842.021.015zm3.732 0h.747v-5.612h-.653l-.877 2.056-.877-2.056h-.652v5.612h.746l-.047-4.057.021-.015.747 1.842h.135l.747-1.842.021.015zm3.639-.314c.261-.261.391-.637.391-1.127v-4.171h-.762v4.249c0 .245-.052.433-.151.569-.105.136-.235.198-.397.198-.371 0-.553-.266-.553-.798v-4.218h-.762v4.228c0 .433.125.783.375 1.055.251.271.564.407.94.407.35 0 .658-.131.919-.392zm3.106.314h.616v-5.612h-.694v3.461l-.016.01-1.321-3.471h-.616v5.612h.695v-3.493l.015-.01zm1.31 0h.763v-5.612h-.763zm2.898-5.017c.256 0 .506.12.762.35v-.731c-.298-.194-.569-.293-.82-.293-.516 0-.913.256-1.195.773-.277.512-.418 1.227-.418 2.14 0 .914.136 1.619.413 2.109.276.496.668.742 1.18.742.167 0 .323-.058.485-.115l.157-.799c-.199.125-.392.245-.543.245-.319 0-.548-.172-.689-.516-.136-.345-.209-.909-.209-1.697 0-.794.068-1.363.203-1.702.147-.334.366-.506.674-.506zm2.667 3.101h-.85l.412-2.35h.021zm1.081 1.916-1.107-5.644h-.793l-1.117 5.644h.736l.235-1.248h1.101l.214 1.248zm1.279-4.939h.903v-.668h-2.568v.668h.903v4.944h.762zm1.185 4.939h.762v-5.612h-.762zm3.623-2.804c0 .7-.068 1.243-.209 1.629s-.329.585-.569.585c-.255 0-.449-.188-.584-.569-.136-.381-.209-.93-.209-1.64 0-.689.068-1.232.198-1.623.136-.392.324-.59.574-.59.251 0 .444.193.585.574.146.381.214.924.214 1.634zm.345 2.115c.303-.507.454-1.217.454-2.12 0-.846-.141-1.54-.428-2.078-.287-.537-.674-.804-1.154-.804-.496 0-.887.272-1.164.804-.277.538-.418 1.227-.418 2.073 0 .892.146 1.597.439 2.109.292.511.673.767 1.138.767.454.016.83-.24 1.133-.751zm2.986.689h.616v-5.612h-.694v3.461l-.016.01-1.321-3.471h-.616v5.612h.694v-3.493l.016-.01zm2.735-.282c.225-.24.34-.548.34-.935 0-.198-.042-.423-.126-.678-.083-.256-.261-.627-.543-1.118-.281-.49-.454-.824-.516-1.007-.063-.183-.1-.345-.1-.475 0-.36.194-.538.58-.538.146 0 .329.057.538.178v-.679c-.225-.099-.439-.146-.637-.146-.35 0-.642.12-.867.36-.224.24-.339.548-.339.924 0 .193.042.418.125.673.084.256.266.627.543 1.123.282.496.449.835.517 1.018.063.183.094.339.094.47 0 .151-.058.276-.167.386-.115.104-.251.157-.407.157-.214 0-.434-.105-.663-.308v.746c.24.146.49.219.751.219.355-.01.648-.13.877-.37zm4.756.36c.319 0 .616-.104.903-.313v-.757c-.318.266-.584.402-.804.402-.318 0-.548-.173-.689-.517-.141-.345-.209-.908-.209-1.697 0-.793.068-1.362.204-1.702.136-.339.36-.511.663-.511.256 0 .506.12.762.35v-.731c-.297-.194-.569-.293-.819-.293-.517 0-.914.256-1.196.773-.277.512-.417 1.227-.417 2.14 0 .914.135 1.619.417 2.109.282.502.674.747 1.185.747zm3.43-2.882c0 .7-.068 1.243-.209 1.629s-.329.585-.569.585c-.256 0-.449-.188-.584-.569-.136-.381-.209-.93-.209-1.64 0-.689.068-1.232.203-1.623.136-.392.324-.59.575-.59.25 0 .443.193.584.574s.209.924.209 1.634zm.345 2.115c.302-.507.454-1.217.454-2.12 0-.846-.141-1.54-.428-2.078-.287-.537-.674-.804-1.154-.804-.501 0-.887.272-1.164.804-.277.538-.418 1.227-.418 2.073 0 .892.146 1.597.439 2.109.292.511.673.767 1.138.767.449.016.83-.24 1.133-.751zm2.986.689h.616v-5.612h-.695v3.461l-.015.01-1.321-3.471h-.616v5.612h.694v-3.493l.016-.01zm2.73-.282c.225-.24.339-.548.339-.935 0-.198-.041-.423-.125-.678-.083-.256-.261-.627-.543-1.118-.282-.49-.454-.824-.517-1.007-.062-.183-.099-.345-.099-.475 0-.36.193-.538.58-.538.13 0 .292.063.475.157v-.674c-.199-.078-.397-.13-.575-.13-.349 0-.642.12-.866.36-.225.24-.34.548-.34.924 0 .193.042.418.126.673.083.256.266.627.543 1.123.282.496.449.835.517 1.018.062.183.094.339.094.47 0 .151-.058.276-.168.386-.114.104-.25.157-.407.157-.214 0-.433-.105-.663-.308v.746c.24.146.491.219.752.219.36-.01.653-.13.877-.37zm2.01-4.657h.908v-.668h-2.511v.668h.841v4.944h.762zm2.647.908c0 .569-.214.851-.637.851h-.037v-1.759c.449 0 .674.303.674.908zm.438 4.031h.794l-.272-1.154c-.224-.924-.49-1.488-.809-1.702.407-.266.611-.668.611-1.201 0-.47-.131-.845-.397-1.127s-.652-.423-1.159-.423h-.637v5.612h.762v-2.511c.178-.021.329.062.449.245.121.183.267.616.429 1.295zm3.237-.314c.261-.261.391-.637.391-1.127v-4.171h-.762v4.249c0 .245-.052.433-.156.569-.105.136-.235.198-.397.198-.371 0-.553-.266-.553-.798v-4.218h-.763v4.228c0 .433.126.783.376 1.055.251.271.564.407.94.407.355 0 .663-.131.924-.392zm3.017-5.173c-.193-.089-.391-.198-.563-.198-.517 0-.914.255-1.196.772-.277.512-.418 1.227-.418 2.141 0 .913.136 1.618.413 2.109.277.496.668.741 1.174.741.319 0 .622-.104.904-.313v-.757c-.319.266-.585.402-.804.402-.319 0-.549-.173-.689-.517-.136-.345-.209-.908-.209-1.697 0-.793.068-1.362.203-1.702.136-.339.361-.511.663-.511.167 0 .34.073.507.172v-.642zm1.927.548h.903v-.668h-2.537v.668h.872v4.944h.762zm1.185 4.939h.762v-5.612h-.762zm3.623-2.804c0 .7-.068 1.243-.209 1.629s-.329.585-.574.585c-.256 0-.449-.188-.585-.569s-.209-.93-.209-1.64c0-.689.068-1.232.199-1.623.135-.392.323-.59.574-.59.25 0 .444.193.585.574.151.381.219.924.219 1.634zm.344 2.115c.303-.507.455-1.217.455-2.12 0-.846-.141-1.54-.429-2.078-.287-.537-.673-.804-1.153-.804-.496 0-.888.272-1.164.804-.277.538-.418 1.227-.418 2.073 0 .892.146 1.597.438 2.109.293.511.674.767 1.144.767.449.016.825-.24 1.127-.751zm3.602.694v-5.617h-.694v3.461l-.016.01-1.32-3.471h-.616v5.612h.694v-3.493l.016-.01 1.32 3.508z"/><path d="m76.185 25.069c0 1.154-.606 1.905-1.937 1.905l-4.443-.015v-9.444h6.39zm-9.126 1.905h-6.337l.015-9.459h6.338zm11.861-1.665v-9.752h-9.109v-2.506h-2.736v2.506h-9.068v13.385h9.068v2.506h2.736v-2.506h5.398c2.787 0 3.711-1.101 3.711-3.633z"/><path d="m85.513 28.029h13.067v-1.937h-.877l-1.227-2.381h-2.328l1.227 2.381h-1.953v-3.419h4.458v-1.942h-4.458v-2.344h5.158v-1.937h-13.067v1.937h5.184v2.344h-4.396v1.942h4.401v3.419h-5.184v1.937zm14.257-.287c0 1.028-.626 1.754-1.728 1.754h-13.698l-.005-14.487h15.426zm2.736-.058-.005-14.628h-20.893l.005 18.387h17.056c2.506 0 3.837-1.404 3.837-3.759z"/><path d="m105.142 16.638h21.013v-1.932h-8.912l-1.075-1.655h-3.232l1.055 1.655h-8.849zm16.659 5.335c1.054.324 2.401.475 4.354.501v-1.681c-3.284-.073-3.879-1.352-4.761-3.283h-3.582c.554 1.002.961 1.858 1.436 2.485-.627 2.229-1.9 4.259-3.602 5.784-1.78-1.556-2.965-3.535-3.618-5.79.449-.626.903-1.529 1.43-2.505h-3.534c-.929 1.952-1.477 3.132-4.787 3.309v1.681c1.979-.026 3.357-.177 4.385-.527.851 2.281 2.156 4.108 3.832 5.461-2.182 1.226-4.959 2.062-8.217 2.187v1.853c3.983-.073 7.601-.882 10.509-2.438 2.881 1.53 6.625 2.339 10.509 2.438v-1.853c-3.133-.151-6.04-.982-8.197-2.161 1.655-1.373 3.018-3.153 3.843-5.461z"/><path d="m145.752 19.217c0 .376-.303.804-.825.804h-1.315v-1.18h2.145v.376zm0-2.13h-2.145v-1.18h2.145zm2.553 1.754h1.102v-1.754h-1.102v-2.908h-4.698v-1.128h-2.757v1.128h-4.688v1.728h4.688v1.174h-4.688v1.755h4.688v1.179h-4.688v1.781h4.688v1.002h-4.688v1.78h4.688v1.002h-4.688v1.728h4.688v1.175h2.757v-1.175h4.698v-1.728h-4.698v-1.002h4.698v-1.78h-4.698v-1.002h2.521c1.378 0 2.177-.904 2.177-2.203zm.804 12.43.626-2.605c-4.16.449-8.921.6-12.001.224-1.702-.198-2.981-.652-4.01-1.503 1.681-2.757 1.827-5.962 1.754-7.466h-3.184c1.681-1.252 2.631-3.257 2.981-5.737h-6.531v1.932h3.278c-.501 2.756-2.704 3.785-2.704 3.785v1.978h3.561c-.074 1.478-.277 2.704-.653 3.759-.402-.653-.752-1.378-1.128-2.255h-2.077c.449 1.352 1.002 2.934 2.004 4.286-.574.678-1.305 1.336-2.255 1.858v1.932c1.53-.528 2.73-1.384 3.633-2.339 1.154.929 2.684 1.655 4.809 2.005 3.252.522 6.635.245 11.897.146z"/></g></svg>