<?xml version="1.0" encoding="utf-8"?>
<!-- Generator: Adobe Illustrator 25.0.1, SVG Export Plug-In . SVG Version: 6.00 Build 0)  -->
<svg version="1.0" id="katman_1" xmlns="http://www.w3.org/2000/svg" xmlns:xlink="http://www.w3.org/1999/xlink" x="0px" y="0px"
	 viewBox="0 0 800 600" style="enable-background:new 0 0 800 600;" xml:space="preserve">
<style type="text/css">
	.st0{fill-rule:evenodd;clip-rule:evenodd;fill:#0074AC;}
	.st1{fill-rule:evenodd;clip-rule:evenodd;fill:#E61E29;}
	.st2{filter:url(#Adobe_OpacityMaskFilter);}
	.st3{fill-rule:evenodd;clip-rule:evenodd;fill:#FFFFFF;}
	.st4{mask:url(#mask-2_1_);fill-rule:evenodd;clip-rule:evenodd;fill:#0074AC;}
</style>
<g id="Dominos">
	<g id="Group-10" transform="translate(2.000000, 18.000000)">
		<path id="Fill-1" class="st0" d="M650.1,263.3c4.6,0,8.5,2.7,10.2,6.7c1.3,3,1.4,6.9,0.6,10.1c-1.3,4.9-5.4,9.8-14.2,14.4
			l-2.4-3.3c1.7-1.4,3.5-2.9,4.2-4c1.3-1.9-0.4-1.5-1.8-1.9c-4.6-1.4-7.9-5.7-7.9-10.7C638.9,268.3,643.9,263.3,650.1,263.3
			L650.1,263.3z M614.3,307.3c5.8,0,10.5,4.7,10.5,10.5c0,5.8-4.7,10.5-10.5,10.5c-5.8,0-10.5-4.7-10.5-10.5
			C603.8,312,608.5,307.3,614.3,307.3L614.3,307.3z M614.3,288.2c16.3,0,29.6,13.3,29.6,29.6c0,16.4-13.3,29.6-29.6,29.6
			c-16.3,0-29.6-13.3-29.6-29.6C584.7,301.4,597.9,288.2,614.3,288.2L614.3,288.2z M265.2,326.8v-36.9h9.5c3,0,5.6,0.2,7.7,0.6
			c2.1,0.4,3.9,1,5.2,1.8c2.8,1.7,5,3.9,6.5,6.7c1.5,2.8,2.3,5.9,2.3,9.5c0,3.5-0.8,6.7-2.2,9.4c-1.5,2.7-3.7,5-6.5,6.7
			c-1.4,0.8-3.1,1.4-5.2,1.8c-2.1,0.4-5,0.6-8.5,0.6H265.2z M242,347.4v-78.1h23.2c7.4,0,13.7,0.4,18.9,1.2c5.2,0.8,9.5,2,12.7,3.7
			c6.9,3.6,12.2,8.3,15.9,14.1c3.7,5.9,5.5,12.6,5.5,20.1c0,7.5-1.8,14.1-5.5,20c-3.7,5.8-9,10.5-15.9,14.1c-3.4,1.7-7.7,3-12.8,3.8
			c-5.2,0.8-12.2,1.2-20.9,1.2H242z M352.9,307.3c5.8,0,10.5,4.7,10.5,10.5c0,5.8-4.7,10.5-10.5,10.5c-5.8,0-10.5-4.7-10.5-10.5
			C342.4,312,347.1,307.3,352.9,307.3L352.9,307.3z M352.9,288.2c16.3,0,29.6,13.3,29.6,29.6c0,16.4-13.3,29.6-29.6,29.6
			s-29.6-13.3-29.6-29.6C323.3,301.4,336.6,288.2,352.9,288.2L352.9,288.2z M389.1,347.4v-55.2h20.1v7.7c6-10,29.2-14.9,35.8,0.6
			c9.5-14.2,37.1-13.5,37.1,5.7l0,41.1h-21.3v-30.2c0-8.1-1.4-8.9-8.2-8.6c-5.6,0.2-6.8,4.9-6.9,10.1l-0.1,28.6h-20l-0.2-27.7
			c-0.1-11.1-2.5-12-8-11.5c-5.4,0.5-7.8,1.3-7.8,11.5v27.7H389.1z M490.8,347.4h20.8v-56.2h-20.8V347.4z M521.1,347.4v-55.2h20.1
			v7.7c7.8-12.9,38.1-13.1,38.1,7.1l0,40.4h-20l-0.2-27.7c-0.1-11.1-4.1-12.1-9.6-11.5c-4.5,0.5-8.5,2.1-8.5,11.5v27.7H521.1z
			 M656.6,305.5c0.6-19.4,31.7-21.1,49.7-10.2l-6.7,13.1c-6.2-4.3-11.6-6.3-18.4-5.8c-6.5,0.5-7.2,7.6,3.3,7.3
			c16.4-0.4,25.3,8.2,24.4,19.3c-1.4,17.9-29.6,25.3-54.3,9.5l9.1-13.3c6.9,4,13.7,7.5,20.6,6.7c7.2-0.9,10.8-6.6-2-8
			C665,322.3,656.3,316.8,656.6,305.5L656.6,305.5z M501.2,263.1c6.4,0,11.5,5.2,11.5,11.5c0,6.4-5.2,11.5-11.5,11.5
			c-6.4,0-11.5-5.2-11.5-11.5C489.6,268.3,494.8,263.1,501.2,263.1L501.2,263.1z"/>
		<path id="Fill-3" class="st1" d="M168.6,249.5c4.3-4.3,11.3-4.3,15.6,0c4.3,4.3,4.3,11.3,0,15.6c-4.3,4.3-11.3,4.3-15.6,0
			C164.3,260.8,164.3,253.8,168.6,249.5L168.6,249.5z M131.7,256.8l41.2-41c1.7-1.7,4.5-1.7,6.3,0l38.8,39c1.7,1.7,1.7,4.5,0,6.3
			l-41.2,41L131.7,256.8z"/>
		<g id="Group-7" transform="translate(0.000000, 14.000000)">
			<g id="Clip-6">
			</g>
			<defs>
				<filter id="Adobe_OpacityMaskFilter" filterUnits="userSpaceOnUse" x="86.3" y="245.9" width="87.6" height="87.6">
					<feColorMatrix  type="matrix" values="1 0 0 0 0  0 1 0 0 0  0 0 1 0 0  0 0 0 1 0"/>
				</filter>
			</defs>
			<mask maskUnits="userSpaceOnUse" x="86.3" y="245.9" width="87.6" height="87.6" id="mask-2_1_">
				<g class="st2">
					<polygon id="path-1_1_" class="st3" points="86.3,245.9 173.9,245.9 173.9,333.4 86.3,333.4 					"/>
				</g>
			</mask>
			<path id="Fill-5" class="st4" d="M87.6,286.9l41.2-41l45.1,45.2l-41.2,41c-1.7,1.7-4.5,1.7-6.3,0l-38.9-39
				C85.9,291.4,85.9,288.6,87.6,286.9 M105.2,282.8c4.3-4.3,11.3-4.3,15.6,0c4.3,4.3,4.3,11.3,0,15.6c-4.3,4.3-11.3,4.3-15.6,0
				C100.9,294.1,100.9,287.1,105.2,282.8 M137.6,282.7c4.3-4.3,11.3-4.3,15.6,0c4.3,4.3,4.3,11.3,0,15.6c-4.3,4.3-11.3,4.3-15.6,0
				C133.2,294,133.3,287,137.6,282.7"/>
		</g>
		<path id="Fill-8" class="st0" d="M151,347.4V341h1.7l1.7,5.2l1.7-5.2h1.6v6.5h-1V342l-1.7,5.4h-1l-1.8-5.5v5.5H151z M146.9,347.4
			v-5.5h-2.2v-1h5.5v1H148v5.5H146.9z"/>
	</g>
</g>
</svg>
