<svg width="244" height="40" viewBox="0 0 244 40" fill="none" xmlns="http://www.w3.org/2000/svg">
<path fill-rule="evenodd" clip-rule="evenodd" d="M99.8465 10.4678C99.8465 6.60256 102.768 4.79555 106.704 4.79555C110.64 4.79555 111.993 5.41571 114.518 7.83752V3.04201C111.649 3.04201 108.786 2.73193 105.858 2.73193C99.899 2.73193 94.5577 5.67232 94.5577 11.6493C94.5577 21.1869 110.64 20.1016 110.64 28.7624C110.64 32.8843 107.433 35.2045 103.164 35.2045C97.2575 35.2045 94.8434 32.1626 93.1582 29.9974V35.4611C95.7472 36.4395 100.074 37.2682 102.832 37.2682C109.13 37.2682 115.935 33.6595 115.935 27.2655C115.935 17.4178 99.8524 18.3962 99.8524 10.4571L99.8465 10.4678Z" fill="black"/>
<path fill-rule="evenodd" clip-rule="evenodd" d="M145.259 8.56982H138.775C139.825 10.318 139.871 12.3282 139.871 14.2956V20.5452H125.766V14.2956C125.766 12.3282 125.813 10.318 126.862 8.56982H120.378C121.428 10.318 121.474 12.3282 121.474 14.2956V30.7243C121.474 32.6917 121.428 34.7019 120.378 36.4501H126.862C125.813 34.7019 125.766 32.6917 125.766 30.7243V22.2881H139.871V30.7243C139.871 32.6917 139.825 34.7019 138.775 36.4501H145.259C144.21 34.7019 144.163 32.6917 144.163 30.7243V14.2956C144.163 12.3282 144.21 10.318 145.259 8.56982Z" fill="black"/>
<path fill-rule="evenodd" clip-rule="evenodd" d="M165.225 7.86963C155.313 7.86963 150.07 14.7715 150.07 23.0741C150.07 30.8528 154.455 37.1452 164.462 37.1452C174.468 37.1452 179.617 30.238 179.617 21.9407C179.617 14.1621 175.232 7.86963 165.225 7.86963ZM164.846 35.2259C157.173 35.2259 155.027 27.6237 155.027 21.8552C155.027 15.5628 157.983 9.79425 164.846 9.79425C172.52 9.79425 174.666 17.3965 174.666 23.165C174.666 29.4574 171.71 35.2259 164.846 35.2259Z" fill="black"/>
<path fill-rule="evenodd" clip-rule="evenodd" d="M195.483 8.13669C191.763 8.13669 188.095 8.57508 184.281 8.57508C185.331 10.0613 185.331 12.3334 185.331 14.3008V30.7296C185.331 32.4778 185.378 34.9263 184.281 36.4553H190.859C189.763 34.9263 189.623 32.4778 189.623 30.7296V9.87954H193.436C198.299 9.87954 199.396 12.4992 199.396 15.91C199.396 22.2452 194.818 22.8173 191.15 23.2503C192.054 23.7742 192.771 24.2126 195.296 24.2126C200.964 24.2126 204.352 20.497 204.352 15.4716C204.352 11.1894 201.541 8.13135 195.489 8.13135L195.483 8.13669Z" fill="black"/>
<path fill-rule="evenodd" clip-rule="evenodd" d="M50.5912 32.3815L42.2993 21.8977C45.728 20.6307 49.355 18.0111 49.355 13.9854C49.355 10.5799 46.8301 8.13135 41.9669 8.13135C38.2466 8.13135 34.4389 8.56973 30.4329 8.56973C31.4825 10.056 31.4825 12.3281 31.4825 14.2955V30.4623C31.4825 32.3388 31.5758 34.4398 30.1938 36.45H36.818C35.7684 34.9637 35.7684 32.6916 35.7684 30.7242V22.86C38.5324 23.0792 38.8647 23.8223 40.8648 26.442L46.6785 34.0442C47.7281 35.4395 48.6319 36.4446 50.6786 36.4446H54.5855C52.6321 34.782 51.9615 34.087 50.5853 32.3815H50.5912ZM37.9143 21.2829C37.197 21.2829 36.4856 21.2401 35.7684 21.1493V11.9806C35.7684 11.2802 35.8151 10.5371 35.8617 9.88489H38.1009C42.3401 9.97043 45.0574 10.4997 45.0574 14.8675C45.0574 19.2353 42.5325 21.2936 37.9084 21.2936L37.9143 21.2829Z" fill="black"/>
<path fill-rule="evenodd" clip-rule="evenodd" d="M64.7957 8.56982H58.4106C59.4602 10.0561 59.4603 12.3282 59.4603 14.2956V30.7243C59.4603 32.6917 59.4602 34.9638 58.4106 36.4501H64.7957C63.7461 34.9638 63.7461 32.6917 63.7461 30.7243V14.2956C63.7461 12.3282 63.7461 10.0561 64.7957 8.56982Z" fill="black"/>
<path fill-rule="evenodd" clip-rule="evenodd" d="M76.3236 14.424C76.3236 11.1468 78.8018 9.61782 82.1372 9.61782C85.4726 9.61782 86.6156 10.1417 88.7614 12.1947V8.13159C86.3298 8.13159 83.8982 7.86963 81.42 7.86963C76.3702 7.86963 71.8395 10.3609 71.8395 15.4291C71.8395 23.5125 85.4726 22.593 85.4726 29.9386C85.4726 33.435 82.7553 35.4024 79.1342 35.4024C74.1311 35.4024 72.0785 32.8255 70.6499 30.9864V35.6162C72.8424 36.4449 76.5102 37.1452 78.8485 37.1452C84.184 37.1452 89.951 34.0872 89.951 28.6662C89.951 20.3208 76.3236 21.1495 76.3236 14.424Z" fill="black"/>
<path fill-rule="evenodd" clip-rule="evenodd" d="M27.2256 3.34131H20.2107C20.269 3.54981 20.269 3.91335 20.269 4.325C20.269 5.57066 18.2864 7.69843 15.2309 10.9649C12.4028 14.0283 9.00328 17.7599 6.34428 18.2304V10.1363C6.34428 7.80001 6.34428 5.10554 7.58631 3.34131H0C1.24203 5.10554 1.24203 7.80535 1.24203 10.1363V29.6498C1.24203 31.986 1.24203 34.6805 0 36.4448H7.58631C6.34428 34.6805 6.34428 31.9807 6.34428 29.6498V20.5666C6.34428 20.3635 6.34428 20.1015 6.57169 20.1015C6.79911 20.1015 7.19562 20.5666 7.42304 20.9302L17.61 35.0441C18.234 35.8727 18.7413 36.4448 19.7617 36.4448H25.7037C24.0068 34.6324 22.0825 32.5527 20.5548 30.5319L11.1608 18.2357L19.9308 9.52147C22.4207 7.03016 24.5724 5.47443 27.2314 3.34665L27.2256 3.34131Z" fill="black"/>
<path d="M224.714 27.7252C225.601 26.4261 225.717 25.159 224.522 23.4964C224.213 23.0687 215.688 11.2056 215.484 10.9169C214.691 9.8102 214.79 8.78909 215.396 7.98181C216.113 7.02485 217.443 5.23389 217.443 5.23389C217.443 5.23389 228.236 20.2833 228.685 20.8981C230.026 22.7479 230.061 24.154 228.907 25.699C228.067 26.827 221.426 35.7231 220.854 36.4876H218.16C218.16 36.4876 224.207 28.4469 224.703 27.7198" fill="black"/>
<path d="M211.262 39.984H230.948C233.07 39.984 234.149 39.2141 235.047 38.0005C235.91 36.8404 239.24 32.3871 239.689 31.7776C241.146 29.8209 243.508 29.7461 243.508 29.7461L241.175 26.4956H235.974C234.72 26.4956 233.939 26.9019 233.094 28.0299C232.913 28.2759 229.064 33.4296 228.709 33.9107C228.405 34.317 228.073 34.4667 227.688 34.4721C227.571 34.4721 226.679 34.4721 226.679 34.4721C226.679 34.4721 233.327 25.56 234.009 24.6458C235.589 22.5287 236.102 20.5667 234.435 18.2465C233.817 17.3857 221.326 0 221.326 0C221.326 0 219.892 1.94066 219.344 2.68377C218.743 3.49105 218.551 4.53355 219.361 5.65624C219.589 5.97167 229.63 19.9572 230.096 20.6095C231.432 22.4699 231.659 24.186 230.277 26.0465C229.461 27.1425 222.469 36.509 222.469 36.509H227.443C229.152 36.509 230.096 35.6589 230.4 35.2473C230.738 34.7928 234.295 30.0347 234.341 29.9759C234.732 29.4467 235.356 28.5378 236.855 28.5378H241.036L240.336 28.7677C240.336 28.7677 238.901 29.2435 238.161 30.2326C237.939 30.5266 237.135 31.6012 236.289 32.7453C235.164 34.2582 233.887 35.969 233.642 36.2898C233.163 36.9153 232.12 37.9685 230.44 37.9685H215.466C215.466 37.9685 222.977 27.8802 223.519 27.1639C224.219 26.2443 224.084 25.1537 223.554 24.4106C223.28 24.031 213.553 10.4945 213.553 10.4945C213.553 10.4945 211.95 12.6437 211.512 13.2478C211.04 13.8947 210.667 14.7126 211.571 16.1401C211.635 16.231 218.586 25.8701 218.866 26.2871C219.682 27.5221 219.886 28.463 218.953 29.7086C218.446 30.3822 211.273 40 211.273 40" fill="black"/>
</svg>
